{"title":"The Bodyguard (1992) Kevin Costner ( Optional MULTISUBS)","uid":4844576,"size":756206740,"categoryP":"video","categoryS":"movies","magnet":"?xt=urn:btih:89f7c02a23f6fc57037bbbfdf8ecacd02801c487&amp;dn=The+Bodyguard+%281992%29+Kevin+Costner+%28+Optional+MULTISUBS%29&amp;tr=udp%3A%2F%2Ftracker.openbittorrent.com%3A80&amp;tr=udp%3A%2F%2Fopen.demonii.com%3A1337&amp;tr=udp%3A%2F%2Ftracker.coppersurfer.tk%3A6969&amp;tr=udp%3A%2F%2Fexodus.desync.com%3A6969","seeders":3,"leechers":0,"uploader":"Kuthumi","files":-1,"time":1239632188,"description":" &lt;a href=&quot;http://www.imdb.com/title/tt0103855/&quot; rel=&quot;nofollow&quot; target=&quot;_NEW&quot;&gt;http://www.imdb.com/title/tt0103855/&lt;/a&gt;\na.k.a.: Bodyguard, the - Bodyguard - The Bodyguard\n\nWith Whitney Houston\n\nOptional subtitles in separate idx/sub files (Work in Windows Media Player etc.): Danish, Dutch, English for the hearing impaired, English (normal), Finnish, French, German, Hebrew, Italian, Norwegian, Portuguese, Spanish, Swedish.\n\nKevin Costner guards Whitney Houston both in and out of bed. Classic tribute to Whitney at the top of her career, including &quot;I will always love you&quot;. Complete soundtrack list at &lt;a href=&quot;\nhttp://www.amazon.com/gp/recsradio/radio/B000002VMD/ref=pd_krex_listen_dp_img?ie=UTF8&amp;refTagSuffix=dp_img&quot; rel=&quot;nofollow&quot; target=&quot;_NEW&quot;&gt;\nhttp://www.amazon.com/gp/recsradio/radio/B000002VMD/ref=pd_krex_listen_dp_img?ie=UTF8&amp;refTagSuffix=dp_img&lt;/a&gt;\n\nI thought this classic should be available in a small rip with optional multisubs, so I made one for you.\n\nMy new ripping procedure now produces decent quality for such a long film compressed into just 700 MiB. I enclose a sample for ye weak in faith. \n\nWidescreen DVDrip XviD 2-pass 704x368, great stereo sound AC3.\nRuns well in both my standalone DivX players.\n\nMedaInfo analysis:\nFormat/Info                      : Audio Video Interleave\nFile size                        : 696 MiB\nDuration                         : 2h 4mn\nOveral bit rate                  : 785 Kbps\n\nVideo\nFormat                           : MPEG-4 Visual\nFormat profile                   : Streaming Video@L1\nFormat settings, BVOP            : Yes\nFormat settings, QPel            : No\nFormat settings, GMC             : No warppoints\nFormat settings, Matrix          : Default\nMuxing mode                      : Packet Bitstream\nCodec ID                         : XVID\nCodec ID/Hint                    : XviD\nDuration                         : 2h 4mn\nBit rate                         : 647 Kbps\nWidth                            : 704 pixels\nHeight                           : 368 pixels\nDisplay aspect ratio             : 1.913\nFrame rate                       : 25.000 fps\nResolution                       : 8 bits\nColorimetry                      : 4:2:0\nScan type                        : Progressive\nBits/(Pixel*Frame)               : 0.100\nStream size                      : 574 MiB\nWriting library                  : XviD 1.2.0.dev47 (UTC 2006-11-01)\n\nAudio\nFormat                           : MPEG Audio\nFormat version                   : Version 1\nFormat profile                   : Layer 3\nCodec ID                         : 55\nCodec ID/Hint                    : MP3\nDuration                         : 2h 4mn\nBit rate mode                    : Constant\nBit rate                         : 128 Kbps\nMinimum bit rate                 : 128 Kbps\nChannel(s)                       : 2 channels\nSampling rate                    : 48.0 KHz\nResolution                       : 16 bits\nStream size                      : 114 MiB\nWriting library                  : LAME3.97 \nEncoding settings                : CBR\n\nSource: PAL retail (note that PAL/NTSC will give no problems for avi files).","torrent":{"xt":"urn:btih:89f7c02a23f6fc57037bbbfdf8ecacd02801c487","amp;dn":"The+Bodyguard+%281992%29+Kevin+Costner+%28+Optional+MULTISUBS%29","amp;tr":["udp%3A%2F%2Ftracker.openbittorrent.com%3A80","udp%3A%2F%2Fopen.demonii.com%3A1337","udp%3A%2F%2Ftracker.coppersurfer.tk%3A6969","udp%3A%2F%2Fexodus.desync.com%3A6969"],"infoHash":"89f7c02a23f6fc57037bbbfdf8ecacd02801c487","infoHashBuffer":{"type":"Buffer","data":[137,247,192,42,35,246,252,87,3,123,187,253,248,236,172,208,40,1,196,135]},"announce":[],"urlList":[]}}